# xmcd
#
# Track frame offsets: 
#        150
#        16052
#        29300
#        42408
#        59937
#        73070
#        87023
#        100662
#        112911
#        123737
#        137828
#        149363
#        162788
#        173385
#        189649
#        199464
#        212330
#        224775
#        237687
#        245270
#        257531
#        270257
#        285390
#        296457
#        311599
#        321576
#
# Disc length: 4437 seconds
#
# Revision: 0
# Processed by: cddbd v1.5.1PL0 Copyright (c) Steve Scherf et al.
# Submitted via: ExactAudioCopy v0.95a3
#
DISCID=8a11531a
DTITLE=Various Artist - Русский Хит. Закатай На Зиму!
DYEAR=2000
DGENRE=Pop
TTITLE0=Владимир Кузьмин - Ещё Одна Блондинка
TTITLE1=Таня Буланова and Dj Цветкоff - Мой Сон (Mix)
TTITLE2=Ночной Патруль - Одиночество (Mix)
TTITLE3=Revoльvers - Не Уходи
TTITLE4=Игорёк - Подождём
TTITLE5=Оскар - Между Мной  И Тобой
TTITLE6=Аdамиева - Двое
TTITLE7=Анжелика Варум - Дождик
TTITLE8=Хали-Гали - Анюта
TTITLE9=Алла Горбачёва - Пять Часов На Улице
TTITLE10=Однажды - Растворяююсь
TTITLE11=Небо - Обещала (Mix)
TTITLE12=Абдулла - Губки Не Целованы
TTITLE13=2+2 - Опустевший Бульвар
TTITLE14=Вирус - Я Не Могу
TTITLE15=Валдай - Хотеть Не Вредно
TTITLE16=Влад Сташевский - Далёкие Дали
TTITLE17=Dagaz - Никому Не Отказала
TTITLE18=Avto! - До Свиданья Лето
TTITLE19=Татьяна Светлова - Луна
TTITLE20=Хамелеон - Подружки
TTITLE21=Олег Макин - Почти
TTITLE22=Браться Дорохины - Покажи Свою Тату
TTITLE23=Чужие - Не Спать
TTITLE24=Дмитрий Молчанов - Где Ты?
TTITLE25=Kvasha - Зеленоглазое Такси (Mix)
EXTD=
EXTT0=
EXTT1=
EXTT2=
EXTT3=
EXTT4=
EXTT5=
EXTT6=
EXTT7=
EXTT8=
EXTT9=
EXTT10=
EXTT11=
EXTT12=
EXTT13=
EXTT14=
EXTT15=
EXTT16=
EXTT17=
EXTT18=
EXTT19=
EXTT20=
EXTT21=
EXTT22=
EXTT23=
EXTT24=
EXTT25=
PLAYORDER=
